<svg height="128" width="128" viewBox="0 0 500 500" xmlns="http://www.w3.org/2000/svg">
  <rect x="6.912" y="5.248" width="485.599" height="488.479" style="stroke: rgb(167, 167, 167); stroke-width: 5px; fill: rgb(232, 232, 232);" rx="39.171" ry="39.171" transform="matrix(1, 0, 0, 1, 2.842170943040401e-14, 7.105427357601002e-15)"/>
  <path style="fill: rgb(97, 97, 97);" d="M 249.424 8.065 L 177.419 236.175 L 23.618 346.774 L 59.332 430.3 L 176.843 429.147 L 183.18 410.138 L 311.636 410.138 L 316.82 427.995 L 438.94 426.267 L 474.654 349.078 L 323.156 236.175 L 249.424 8.065 Z" transform="matrix(1, 0, 0, 1, 2.842170943040401e-14, 7.105427357601002e-15)"/>
  <ellipse style="fill: rgb(255, 62, 0);" cx="386.52" cy="263.249" rx="16.129" ry="16.993" transform="matrix(1, 0, 0, 1, 2.842170943040401e-14, 7.105427357601002e-15)"/>
  <ellipse style="fill: rgb(255, 62, 0);" cx="110.741" cy="262.673" rx="16.129" ry="16.993" transform="matrix(1, 0, 0, 1, 2.842170943040401e-14, 7.105427357601002e-15)"/>
  <path d="M 250.287 47.236 L 297.81 177.996 L 202.764 177.996 L 250.287 47.236 Z" style="fill: rgb(255, 231, 34);" transform="matrix(1, 0, 0, 1, 2.842170943040401e-14, 7.105427357601002e-15)"/>
  <ellipse style="fill: rgb(255, 237, 30);" cx="210.829" cy="225.806" rx="5.76" ry="5.76" transform="matrix(1, 0, 0, 1, 2.842170943040401e-14, 7.105427357601002e-15)"/>
  <ellipse style="fill: rgb(255, 237, 30);" cx="286.866" cy="226.959" rx="5.76" ry="5.76" transform="matrix(1, 0, 0, 1, 2.842170943040401e-14, 7.105427357601002e-15)"/>
  <ellipse style="fill: rgb(255, 237, 30);" cx="273.617" cy="316.244" rx="5.76" ry="5.76" transform="matrix(1, 0, 0, 1, 2.842170943040401e-14, 7.105427357601002e-15)"/>
  <ellipse style="fill: rgb(255, 237, 30);" cx="226.382" cy="316.82" rx="5.76" ry="5.76" transform="matrix(1, 0, 0, 1, 2.842170943040401e-14, 7.105427357601002e-15)"/>
  <ellipse style="fill: rgb(255, 237, 30);" cx="164.747" cy="286.291" rx="5.76" ry="5.76" transform="matrix(1, 0, 0, 1, 2.842170943040401e-14, 7.105427357601002e-15)"/>
  <ellipse style="fill: rgb(255, 237, 30);" cx="103.686" cy="317.46" rx="5.76" ry="5.76" transform="matrix(1, 0, 0, 1, 2.842170943040401e-14, 7.105427357601002e-15)"/>
  <ellipse style="fill: rgb(255, 237, 30);" cx="347.926" cy="286.931" rx="5.76" ry="5.76" transform="matrix(1, 0, 0, 1, 2.842170943040401e-14, 7.105427357601002e-15)"/>
  <ellipse style="fill: rgb(255, 237, 30);" cx="394.009" cy="317.46" rx="5.76" ry="5.76" transform="matrix(1, 0, 0, 1, 2.842170943040401e-14, 7.105427357601002e-15)"/>
  <ellipse style="fill: rgb(255, 237, 30);" cx="347.927" cy="371.607" rx="5.76" ry="5.76" transform="matrix(1, 0, 0, 1, 2.842170943040401e-14, 7.105427357601002e-15)"/>
  <ellipse style="fill: rgb(255, 237, 30);" cx="324.309" cy="362.392" rx="5.76" ry="5.76" transform="matrix(1, 0, 0, 1, 2.842170943040401e-14, 7.105427357601002e-15)"/>
  <ellipse style="fill: rgb(255, 237, 30);" cx="172.235" cy="358.359" rx="5.76" ry="5.76" transform="matrix(1, 0, 0, 1, 2.842170943040401e-14, 7.105427357601002e-15)"/>
  <path style="fill: none; stroke-width: 10px; stroke-linecap: square; stroke: rgb(57, 0, 255);" d="M 68.549 328.981 L 43.779 346.838 L 75.461 405.594 L 162.442 407.322 L 179.147 392.345 L 316.82 392.921 L 332.373 407.898 L 418.202 407.898 L 453.341 346.838 L 434.332 334.741" transform="matrix(1, 0, 0, 1, 2.842170943040401e-14, 7.105427357601002e-15)"/>
  <ellipse style="fill: rgb(255, 237, 30);" cx="146.89" cy="368.152" rx="5.76" ry="5.76" transform="matrix(1, 0, 0, 1, 2.842170943040401e-14, 7.105427357601002e-15)"/>
  <path style="fill: rgb(255, 0, 0);" d="M 74.309 430.3 L 76.613 445.853 L 119.815 486.175 L 163.018 445.853 L 165.898 429.724 L 74.309 430.3 Z" transform="matrix(1, 0, 0, 1, 2.842170943040401e-14, 7.105427357601002e-15)"/>
  <path style="fill: rgb(255, 144, 27);" d="M 87.846 430.124 L 89.445 440.916 L 119.421 468.894 L 149.399 440.916 L 151.397 429.724 L 87.846 430.124 Z" transform="matrix(1, 0, 0, 1, 2.842170943040401e-14, 7.105427357601002e-15)"/>
  <path style="fill: rgb(255, 0, 0);" d="M 330.358 427.42 L 332.662 442.973 L 375.864 483.295 L 419.067 442.973 L 421.947 426.844 L 330.358 427.42 Z" transform="matrix(1, 0, 0, 1, 2.842170943040401e-14, 7.105427357601002e-15)"/>
  <path style="fill: rgb(255, 144, 27);" d="M 343.895 427.244 L 345.494 438.036 L 375.47 466.014 L 405.448 438.036 L 407.446 426.844 L 343.895 427.244 Z" transform="matrix(1, 0, 0, 1, 2.842170943040401e-14, 7.105427357601002e-15)"/>
</svg>
